<svg data-v-423bf9ae="" xmlns="http://www.w3.org/2000/svg" viewBox="0 0 397.2208971099142 60" class="font"><!----><!----><!----><g data-v-423bf9ae="" id="704e9792-1847-45ea-95a1-9485702ea01f" fill="black" transform="matrix(5.813952922821045,0,0,5.813952922821045,-5.406961441040039,-18.837207794189453)"><path d="M2.42 13.33L1.34 13.33L1.34 13.33Q0.93 13.33 0.93 12.92L0.93 12.92L0.93 3.65L0.93 3.65Q0.93 3.24 1.34 3.24L1.34 3.24L2.43 3.24L2.43 3.24Q2.84 3.24 2.84 3.65L2.84 3.65L2.84 6.41L2.84 6.41Q2.84 6.69 2.82 6.96L2.82 6.96L2.84 6.96L2.84 6.96Q3.20 6.37 3.64 6.19L3.64 6.19L3.64 6.19Q4.07 6.02 4.69 6.02L4.69 6.02L4.69 6.02Q6.30 6.02 6.95 7.13L6.95 7.13L6.95 7.13Q7.60 8.24 7.60 9.74L7.60 9.74L7.60 9.74Q7.60 11.25 6.95 12.36L6.95 12.36L6.95 12.36Q6.30 13.47 4.69 13.47L4.69 13.47L4.69 13.47Q4.07 13.47 3.64 13.29L3.64 13.29L3.64 13.29Q3.20 13.11 2.84 12.52L2.84 12.52L2.82 12.52L2.79 12.92L2.79 12.92Q2.76 13.33 2.42 13.33L2.42 13.33ZM2.84 9.43L2.84 10.05L2.84 10.05Q2.84 10.97 3.21 11.55L3.21 11.55L3.21 11.55Q3.58 12.13 4.09 12.13L4.09 12.13L4.09 12.13Q5.01 12.13 5.29 11.48L5.29 11.48L5.29 11.48Q5.58 10.83 5.58 9.74L5.58 9.74L5.58 9.74Q5.58 8.65 5.29 8.00L5.29 8.00L5.29 8.00Q5.01 7.36 4.09 7.36L4.09 7.36L4.09 7.36Q3.58 7.36 3.21 7.93L3.21 7.93L3.21 7.93Q2.84 8.51 2.84 9.43L2.84 9.43ZM8.70 9.74L8.70 9.74L8.70 9.74Q8.70 8.00 9.59 7.01L9.59 7.01L9.59 7.01Q10.49 6.02 12.27 6.02L12.27 6.02L12.27 6.02Q14.05 6.02 14.95 7.01L14.95 7.01L14.95 7.01Q15.85 8.00 15.85 9.74L15.85 9.74L15.85 9.74Q15.85 11.48 14.95 12.48L14.95 12.48L14.95 12.48Q14.05 13.47 12.27 13.47L12.27 13.47L12.27 13.47Q10.49 13.47 9.59 12.48L9.59 12.48L9.59 12.48Q8.70 11.48 8.70 9.74ZM10.72 9.74L10.72 9.74L10.72 9.74Q10.72 11.04 11.12 11.58L11.12 11.58L11.12 11.58Q11.52 12.13 12.27 12.13L12.27 12.13L12.27 12.13Q13.02 12.13 13.42 11.58L13.42 11.58L13.42 11.58Q13.82 11.04 13.82 9.74L13.82 9.74L13.82 9.74Q13.82 8.44 13.42 7.90L13.42 7.90L13.42 7.90Q13.02 7.36 12.27 7.36L12.27 7.36L12.27 7.36Q11.52 7.36 11.12 7.90L11.12 7.90L11.12 7.90Q10.72 8.44 10.72 9.74ZM16.94 9.74L16.94 9.74L16.94 9.74Q16.94 8.00 17.84 7.01L17.84 7.01L17.84 7.01Q18.74 6.02 20.51 6.02L20.51 6.02L20.51 6.02Q22.29 6.02 23.19 7.01L23.19 7.01L23.19 7.01Q24.09 8.00 24.09 9.74L24.09 9.74L24.09 9.74Q24.09 11.48 23.19 12.48L23.19 12.48L23.19 12.48Q22.29 13.47 20.51 13.47L20.51 13.47L20.51 13.47Q18.74 13.47 17.84 12.48L17.84 12.48L17.84 12.48Q16.94 11.48 16.94 9.74ZM18.96 9.74L18.96 9.74L18.96 9.74Q18.96 11.04 19.36 11.58L19.36 11.58L19.36 11.58Q19.76 12.13 20.51 12.13L20.51 12.13L20.51 12.13Q21.27 12.13 21.67 11.58L21.67 11.58L21.67 11.58Q22.07 11.04 22.07 9.74L22.07 9.74L22.07 9.74Q22.07 8.44 21.67 7.90L21.67 7.90L21.67 7.90Q21.27 7.36 20.51 7.36L20.51 7.36L20.51 7.36Q19.76 7.36 19.36 7.90L19.36 7.90L19.36 7.90Q18.96 8.44 18.96 9.74ZM27.07 13.33L25.98 13.33L25.98 13.33Q25.57 13.33 25.57 12.92L25.57 12.92L25.57 3.65L25.57 3.65Q25.57 3.24 25.98 3.24L25.98 3.24L27.07 3.24L27.07 3.24Q27.48 3.24 27.48 3.65L27.48 3.65L27.48 8.67L27.48 8.67Q27.48 8.95 27.45 9.22L27.45 9.22L27.48 9.22L29.65 6.43L29.65 6.43Q29.87 6.15 30.18 6.15L30.18 6.15L31.30 6.15L31.30 6.15Q31.93 6.15 31.51 6.66L31.51 6.66L29.45 9.15L31.84 12.82L31.84 12.82Q32.17 13.33 31.63 13.33L31.63 13.33L30.46 13.33L30.46 13.33Q30.12 13.33 29.90 12.97L29.90 12.97L28.35 10.48L27.48 11.53L27.48 12.92L27.48 12.92Q27.48 13.33 27.07 13.33L27.07 13.33ZM32.89 12.85L32.89 12.85L32.89 12.85Q32.56 12.61 32.71 12.34L32.71 12.34L33.06 11.70L33.06 11.70Q33.24 11.36 33.63 11.62L33.63 11.62L33.63 11.62Q34.02 11.88 34.55 12.00L34.55 12.00L34.55 12.00Q35.08 12.13 35.52 12.13L35.52 12.13L35.52 12.13Q35.83 12.13 36.09 12.07L36.09 12.07L36.09 12.07Q36.36 12.00 36.54 11.83L36.54 11.83L36.54 11.83Q36.73 11.65 36.73 11.31L36.73 11.31L36.73 11.31Q36.73 11.10 36.62 10.96L36.62 10.96L36.62 10.96Q36.51 10.81 36.34 10.74L36.34 10.74L36.34 10.74Q36.17 10.66 35.98 10.62L35.98 10.62L35.98 10.62Q35.72 10.55 35.25 10.41L35.25 10.41L35.25 10.41Q34.77 10.27 34.34 10.08L34.34 10.08L34.34 10.08Q33.97 9.92 33.63 9.64L33.63 9.64L33.63 9.64Q33.28 9.35 33.12 9.00L33.12 9.00L33.12 9.00Q32.96 8.65 32.96 8.14L32.96 8.14L32.96 8.14Q32.96 7.45 33.36 6.93L33.36 6.93L33.36 6.93Q33.76 6.41 34.40 6.21L34.40 6.21L34.40 6.21Q35.03 6.02 35.98 6.02L35.98 6.02L35.98 6.02Q36.63 6.02 37.24 6.20L37.24 6.20L37.24 6.20Q37.84 6.38 38.10 6.55L38.10 6.55L38.10 6.55Q38.51 6.81 38.31 7.10L38.31 7.10L37.89 7.71L37.89 7.71Q37.70 7.98 37.28 7.75L37.28 7.75L37.28 7.75Q36.96 7.57 36.64 7.46L36.64 7.46L36.64 7.46Q36.33 7.36 35.95 7.36L35.95 7.36L35.95 7.36Q35.69 7.36 35.45 7.41L35.45 7.41L35.45 7.41Q35.21 7.46 35.04 7.62L35.04 7.62L35.04 7.62Q34.88 7.77 34.88 8.01L34.88 8.01L34.88 8.01Q34.88 8.27 35.03 8.42L35.03 8.42L35.03 8.42Q35.18 8.57 35.39 8.63L35.39 8.63L35.39 8.63Q35.59 8.70 35.77 8.76L35.77 8.76L35.77 8.76Q36.16 8.89 36.54 9.00L36.54 9.00L36.54 9.00Q36.93 9.11 37.34 9.27L37.34 9.27L37.34 9.27Q37.69 9.41 38.01 9.66L38.01 9.66L38.01 9.66Q38.34 9.91 38.49 10.30L38.49 10.30L38.49 10.30Q38.64 10.69 38.64 11.19L38.64 11.19L38.64 11.19Q38.64 11.85 38.25 12.42L38.25 12.42L38.25 12.42Q37.85 12.99 37.20 13.23L37.20 13.23L37.20 13.23Q36.55 13.47 35.69 13.47L35.69 13.47L35.69 13.47Q34.73 13.47 34.05 13.33L34.05 13.33L34.05 13.33Q33.37 13.19 32.89 12.85ZM41.56 13.33L40.47 13.33L40.47 13.33Q40.06 13.33 40.06 12.92L40.06 12.92L40.06 6.56L40.06 6.56Q40.06 6.15 40.47 6.15L40.47 6.15L41.55 6.15L41.55 6.15Q41.96 6.15 41.96 6.56L41.96 6.56L41.96 6.96L41.99 6.96L41.99 6.96Q42.18 6.52 42.66 6.27L42.66 6.27L42.66 6.27Q43.13 6.02 43.54 6.02L43.54 6.02L43.54 6.02Q44.36 6.02 44.81 6.40L44.81 6.40L44.81 6.40Q45.27 6.78 45.44 7.25L45.44 7.25L45.47 7.25L45.47 7.25Q46.06 6.48 46.54 6.25L46.54 6.25L46.54 6.25Q47.02 6.02 47.78 6.02L47.78 6.02L47.78 6.02Q48.79 6.02 49.48 6.69L49.48 6.69L49.48 6.69Q50.18 7.36 50.18 9.13L50.18 9.13L50.18 12.92L50.18 12.92Q50.18 13.33 49.77 13.33L49.77 13.33L48.67 13.33L48.67 13.33Q48.26 13.33 48.26 12.92L48.26 12.92L48.26 9.63L48.26 9.63Q48.26 8.13 48.06 7.75L48.06 7.75L48.06 7.75Q47.86 7.36 47.35 7.36L47.35 7.36L47.35 7.36Q46.87 7.36 46.47 7.92L46.47 7.92L46.47 7.92Q46.07 8.48 46.07 10.23L46.07 10.23L46.07 12.92L46.07 12.92Q46.07 13.33 45.66 13.33L45.66 13.33L44.57 13.33L44.57 13.33Q44.16 13.33 44.16 12.92L44.16 12.92L44.16 9.63L44.16 9.63Q44.16 8.13 43.96 7.75L43.96 7.75L43.96 7.75Q43.76 7.36 43.24 7.36L43.24 7.36L43.24 7.36Q42.77 7.36 42.37 7.91L42.37 7.91L42.37 7.91Q41.97 8.47 41.97 10.23L41.97 10.23L41.97 12.92L41.97 12.92Q41.97 13.33 41.56 13.33L41.56 13.33ZM51.64 11.42L51.64 11.42L51.64 11.42Q51.64 10.05 52.94 9.43L52.94 9.43L52.94 9.43Q54.25 8.82 55.92 8.78L55.92 8.78L55.92 8.50L55.92 8.50Q55.92 7.88 55.61 7.62L55.61 7.62L55.61 7.62Q55.30 7.36 54.74 7.36L54.74 7.36L54.74 7.36Q54.34 7.36 54.03 7.47L54.03 7.47L54.03 7.47Q53.73 7.58 53.51 7.73L53.51 7.73L53.51 7.73Q53.29 7.88 53.11 8.03L53.11 8.03L53.11 8.03Q52.79 8.30 52.59 8.05L52.59 8.05L52.02 7.36L52.02 7.36Q51.81 7.10 52.12 6.82L52.12 6.82L52.12 6.82Q52.36 6.61 52.68 6.45L52.68 6.45L52.68 6.45Q53.00 6.30 53.53 6.16L53.53 6.16L53.53 6.16Q54.05 6.02 54.89 6.02L54.89 6.02L54.89 6.02Q56.31 6.02 57.08 6.67L57.08 6.67L57.08 6.67Q57.84 7.33 57.84 8.61L57.84 8.61L57.84 12.92L57.84 12.92Q57.84 13.33 57.43 13.33L57.43 13.33L56.31 13.33L56.31 13.33Q55.94 13.33 55.94 12.92L55.94 12.92L55.94 12.71L55.92 12.71L55.92 12.71Q55.52 13.10 54.96 13.29L54.96 13.29L54.96 13.29Q54.39 13.47 53.92 13.47L53.92 13.47L53.92 13.47Q52.80 13.47 52.22 12.92L52.22 12.92L52.22 12.92Q51.64 12.37 51.64 11.42ZM53.66 11.38L53.66 11.38L53.66 11.38Q53.66 11.61 53.76 11.79L53.76 11.79L53.76 11.79Q53.85 11.96 54.06 12.04L54.06 12.04L54.06 12.04Q54.26 12.13 54.52 12.13L54.52 12.13L54.52 12.13Q54.87 12.13 55.19 12.03L55.19 12.03L55.19 12.03Q55.52 11.94 55.92 11.58L55.92 11.58L55.92 10.10L55.92 10.10Q54.78 10.23 54.39 10.43L54.39 10.43L54.39 10.43Q54.00 10.64 53.83 10.86L53.83 10.86L53.83 10.86Q53.66 11.07 53.66 11.38ZM61.20 13.33L60.11 13.33L60.11 13.33Q59.70 13.33 59.70 12.92L59.70 12.92L59.70 6.56L59.70 6.56Q59.70 6.15 60.11 6.15L60.11 6.15L61.19 6.15L61.19 6.15Q61.60 6.15 61.60 6.56L61.60 6.56L61.60 7.12L61.63 7.12L61.63 7.12Q61.80 6.69 62.22 6.35L62.22 6.35L62.22 6.35Q62.64 6.02 63.21 6.02L63.21 6.02L63.21 6.02Q63.59 6.02 63.85 6.11L63.85 6.11L63.85 6.11Q64.09 6.20 64.03 6.44L64.03 6.44L63.84 7.25L63.84 7.25Q63.78 7.53 63.47 7.42L63.47 7.42L63.47 7.42Q63.29 7.36 63.13 7.36L63.13 7.36L63.13 7.36Q62.47 7.36 62.04 8.14L62.04 8.14L62.04 8.14Q61.61 8.93 61.61 10.43L61.61 10.43L61.61 12.92L61.61 12.92Q61.61 13.33 61.20 13.33L61.20 13.33ZM65.30 7.52L64.83 7.52L64.83 7.52Q64.43 7.52 64.43 7.18L64.43 7.18L64.43 6.49L64.43 6.49Q64.43 6.15 64.83 6.15L64.83 6.15L65.30 6.15L65.30 5.91L65.30 5.91Q65.30 5.61 65.44 5.35L65.44 5.35L65.97 4.43L65.97 4.43Q66.12 4.17 66.32 4.17L66.32 4.17L66.80 4.17L66.80 4.17Q67.21 4.17 67.21 4.58L67.21 4.58L67.21 6.15L68.32 6.15L68.32 6.15Q68.72 6.15 68.72 6.49L68.72 6.49L68.72 7.18L68.72 7.18Q68.72 7.52 68.32 7.52L68.32 7.52L67.21 7.52L67.21 10.91L67.21 10.91Q67.21 11.61 67.31 11.91L67.31 11.91L67.31 11.91Q67.41 12.22 67.83 12.22L67.83 12.22L67.83 12.22Q68.04 12.22 68.30 12.14L68.30 12.14L68.30 12.14Q68.57 12.07 68.72 12.00L68.72 12.00L68.72 12.00Q68.96 11.89 69.04 12.16L69.04 12.16L69.24 12.94L69.24 12.94Q69.30 13.17 69.06 13.28L69.06 13.28L69.06 13.28Q68.84 13.38 68.44 13.47L68.44 13.47L68.44 13.47Q68.05 13.56 67.66 13.56L67.66 13.56L67.66 13.56Q66.68 13.56 65.99 13.15L65.99 13.15L65.99 13.15Q65.30 12.75 65.30 11.49L65.30 11.49L65.30 7.52Z"></path></g><!----><!----></svg>